<?xml version="1.0" encoding="UTF-8" standalone="no"?>
<!-- Created with Inkscape (http://www.inkscape.org/) -->

<svg
   xmlns:dc="http://purl.org/dc/elements/1.1/"
   xmlns:cc="http://creativecommons.org/ns#"
   xmlns:rdf="http://www.w3.org/1999/02/22-rdf-syntax-ns#"
   xmlns:svg="http://www.w3.org/2000/svg"
   xmlns="http://www.w3.org/2000/svg"
   xmlns:sodipodi="http://sodipodi.sourceforge.net/DTD/sodipodi-0.dtd"
   xmlns:inkscape="http://www.inkscape.org/namespaces/inkscape"
   width="107mm"
   height="148mm"
   viewBox="0 0 107 148"
   version="1.1"
   id="svg8"
   inkscape:export-filename="Z:\Downloads\bitmap.png"
   inkscape:export-xdpi="3.4917898"
   inkscape:export-ydpi="3.4917898"
   inkscape:version="0.92.4 (5da689c313, 2019-01-14)"
   sodipodi:docname="drawing.svg">
  <defs
     id="defs2" />
  <sodipodi:namedview
     id="base"
     pagecolor="#ffffff"
     bordercolor="#666666"
     borderopacity="1.0"
     inkscape:pageopacity="0.0"
     inkscape:pageshadow="2"
     inkscape:zoom="0.5683642"
     inkscape:cx="30.008146"
     inkscape:cy="561.25984"
     inkscape:document-units="mm"
     inkscape:current-layer="layer1"
     showgrid="false"
     inkscape:window-width="1440"
     inkscape:window-height="837"
     inkscape:window-x="-8"
     inkscape:window-y="-8"
     inkscape:window-maximized="1" />
  <metadata
     id="metadata5">
    <rdf:RDF>
      <cc:Work
         rdf:about="">
        <dc:format>image/svg+xml</dc:format>
        <dc:type
           rdf:resource="http://purl.org/dc/dcmitype/StillImage" />
        <dc:title></dc:title>
      </cc:Work>
    </rdf:RDF>
  </metadata>
  <g
     inkscape:label="Layer 1"
     inkscape:groupmode="layer"
     id="layer1"
     transform="translate(0,-149)">
    <path
       style="fill:#000000;stroke-width:0.26458335"
       d="m 26.86261,296.03683 c -6.495034,-1.17735 -12.051104,-4.10667 -16.750214,-8.83119 -4.1529801,-4.17544 -6.8425701,-8.8502 -8.3914301,-14.58511 -0.64719,-2.39631 -0.68388,-2.90534 -0.78668002,-10.91406 l -0.10783,-8.40052 H 7.4634659 14.100466 l -0.003,1.65364 c -0.0124,7.72882 0.22057,13.15395 0.62762,14.61823 1.77452,6.38334 6.75764,11.32343 13.133362,13.01993 2.279912,0.60666 6.678931,0.59546 8.952781,-0.0228 3.250084,-0.88367 6.083322,-2.55148 8.457923,-4.97881 2.442435,-2.49668 3.587292,-4.59494 4.81456,-8.82401 4.107179,-14.153 10.699909,-22.8078 23.166099,-30.41195 4.04349,-2.46645 6.29358,-4.2447 9.19202,-7.26446 5.42647,-5.65362 8.98675,-12.71304 10.41556,-20.65229 0.60818,-3.37941 0.60741,-9.8336 -0.002,-13.22917 -4.10465,-22.88687 -26.38223,-37.40288 -48.73825,-31.7577 -14.411138,3.639 -25.560005,15.01735 -28.913595,29.50874 -0.77819,3.36268 -1.1026,7.17239 -1.09272,12.8323 0.005,2.69213 0.004,6.65096 -10e-4,8.79739 l -0.01,3.90261 H 7.4635759 0.82733588 l 0.11999,-11.57553 c 0.096,-9.26133 0.20679002,-12.02513 0.55417002,-13.82447 2.28394,-11.83 7.08767,-20.99132 15.2368201,-29.05854 9.851791,-9.75274 23.014212,-15.12688 37.048995,-15.12688 25.79079,0 47.560489,18.29494 52.262729,43.92083 0.63686,3.4707 0.77647,12.93181 0.24206,16.40417 -2.5066,16.28684 -11.872009,30.19349 -25.854299,38.39092 -9.14619,5.36215 -14.13279,11.6182 -17.11423,21.47106 -0.29723,0.98226 -0.78924,2.58961 -1.09335,3.57187 -3.36717,10.87581 -13.112037,19.36042 -24.530098,21.35773 -2.782387,0.4867 -8.175487,0.49071 -10.838171,0.008 z m 10.521195,-52.81544 c -4.643456,-1.23977 -8.473771,-5.03303 -9.685793,-9.59208 -0.465643,-1.75152 -0.564696,-31.0309 -0.114482,-33.84022 1.588714,-9.91356 8.618736,-18.13052 18.134651,-21.19647 5.172057,-1.66639 10.96753,-1.66639 16.13958,0 9.47198,3.0518 16.55218,11.28595 18.13359,21.08908 0.46626,2.89028 0.19342,8.45625 -0.54049,11.02633 -1.07519,3.76521 -3.37375,7.94003 -6.04292,10.97563 l -0.88524,1.00677 -4.71833,-4.71287 -4.71834,-4.71287 0.89029,-1.08648 c 2.25783,-2.75538 3.35054,-6.69313 2.8167,-10.15043 -0.88863,-5.7551 -5.24958,-10.21036 -10.93607,-11.17259 -6.775879,-1.14657 -13.508752,3.50373 -14.90821,10.29688 -0.236649,1.14874 -0.36461,3.7171 -0.372126,7.46917 l -0.01146,5.71842 4.03809,2.6808 c 2.220949,1.47444 4.495763,3.12533 5.05514,3.66866 1.170517,1.13692 3.071256,3.84221 3.071256,4.37127 0,0.19716 0.10287,0.47158 0.22861,0.60983 0.80424,0.88425 1.08524,5.62129 0.47006,7.92427 -1.25247,4.68871 -4.875271,8.31509 -9.550808,9.56025 -1.508646,0.40177 -5.100471,0.43864 -6.493703,0.0667 z"
       id="path3724"
       inkscape:connector-curvature="0" />
  </g>
</svg>
